<svg width="28" height="29" viewBox="0 0 28 29" fill="none" xmlns="http://www.w3.org/2000/svg">
<mask id="mask0_5670_430" style="mask-type:alpha" x="0" y="0" width="28" height="29">
<rect y="0.768066" width="28" height="28" fill="#C4C4C4"/>
</mask>
<g mask="url(#mask0_5670_430)">
<path d="M24.2084 10.2018H19.6234L20.0574 5.21781C20.0994 4.73714 19.7424 4.31364 19.2617 4.27048C18.7752 4.23548 18.3564 4.58548 18.3144 5.06731L17.8675 10.2006H10.4942L10.9259 5.21896C10.969 4.73713 10.6109 4.31364 10.1325 4.27048C9.64254 4.23548 9.22604 4.58548 9.18404 5.06731L8.73837 10.2006H4.1207C3.6377 10.2006 3.2457 10.5938 3.2457 11.0756C3.2457 11.5575 3.6377 11.9506 4.1207 11.9506H8.58671L7.94504 19.3321H3.20837C2.72537 19.3321 2.33337 19.7241 2.33337 20.2071C2.33337 20.6901 2.72537 21.0821 3.20837 21.0821H7.79337L7.35937 26.0661C7.31737 26.5468 7.67437 26.9703 8.15504 27.0135L8.23204 27.017C8.68121 27.017 9.06271 26.6728 9.10238 26.2166L9.5492 21.0833H16.9225L16.4909 26.065C16.4489 26.5468 16.8059 26.9703 17.2865 27.0135L17.3635 27.017C17.8127 27.017 18.1942 26.6728 18.2339 26.2166L18.6795 21.0833H23.296C23.7779 21.0833 24.171 20.6901 24.171 20.2083C24.171 19.7265 23.7779 19.3333 23.296 19.3333H18.83L19.4717 11.9518H24.2084C24.6914 11.9518 25.0834 11.5598 25.0834 11.0768C25.0834 10.5938 24.6914 10.2018 24.2084 10.2018ZM17.0742 19.3321H9.70088L10.3425 11.9518H17.7159L17.0742 19.3321Z" fill="black"/>
</g>
</svg>
