<svg width="28" height="29" viewBox="0 0 28 29" fill="none" xmlns="http://www.w3.org/2000/svg">
<mask id="mask0_5670_440" style="mask-type:alpha" x="0" y="0" width="28" height="29">
<rect y="0.768066" width="28" height="28" fill="#C4C4C4"/>
</mask>
<g mask="url(#mask0_5670_440)">
<path d="M18.9583 12.4347C17.8325 12.4347 16.9166 13.3529 16.9166 14.4764C16.9166 15.5999 17.8313 16.518 18.9583 16.518C20.083 16.518 21 15.601 21 14.4764C21 13.3517 20.083 12.4347 18.9583 12.4347ZM18.9583 15.3514C18.4753 15.3514 18.0833 14.9594 18.0833 14.4764C18.0833 13.9945 18.4765 13.6014 18.9583 13.6014C19.4401 13.6014 19.8333 13.9934 19.8333 14.4764C19.8333 14.9582 19.4413 15.3514 18.9583 15.3514ZM13.7083 12.4347C12.5813 12.4347 11.6666 13.3529 11.6666 14.4764C11.6666 15.5999 12.5825 16.518 13.7083 16.518C14.8341 16.518 15.75 15.601 15.75 14.4764C15.75 13.3517 14.8353 12.4347 13.7083 12.4347ZM13.7083 15.3514C13.2253 15.3514 12.8333 14.9594 12.8333 14.4764C12.8333 13.9945 13.2265 13.6014 13.7083 13.6014C14.1901 13.6014 14.5833 13.9934 14.5833 14.4764C14.5833 14.9582 14.1913 15.3514 13.7083 15.3514ZM8.45829 12.4347C7.33246 12.4347 6.41663 13.3529 6.41663 14.4764C6.41663 15.5999 7.33246 16.518 8.45829 16.518C9.58296 16.518 10.5 15.601 10.5 14.4764C10.5 13.3517 9.58179 12.4347 8.45829 12.4347ZM8.45829 15.3514C7.97529 15.3514 7.58329 14.9594 7.58329 14.4764C7.58329 13.9945 7.97646 13.6014 8.45829 13.6014C8.94013 13.6014 9.33329 13.9934 9.33329 14.4764C9.33329 14.9582 8.94129 15.3514 8.45829 15.3514Z" fill="black"/>
<path d="M13.7083 27.018C6.79229 27.018 1.16663 21.3924 1.16663 14.4764C1.16663 7.56036 6.79229 1.93469 13.7083 1.93469C20.6243 1.93469 26.25 7.56036 26.25 14.4764C26.25 21.3924 20.6243 27.018 13.7083 27.018ZM13.7083 3.68469C7.75829 3.68469 2.91663 8.52636 2.91663 14.4764C2.91663 20.4264 7.75829 25.268 13.7083 25.268C19.6583 25.268 24.5 20.4264 24.5 14.4764C24.5 8.52636 19.6583 3.68469 13.7083 3.68469Z" fill="black"/>
</g>
</svg>
